# xmcd
#
# Track frame offsets:
#	150
#	30262
#	43362
#	66180
#	80216
#	93851
#	115122
#	126699
#	147554
#	164144
#	186343
#	199877
#	209966
#
# Disc length: 2939 seconds
#
# Revision: 0
# Processed by: cddbd v1.5.2PL0 Copyright (c) Steve Scherf et al.
# Submitted via: dBpowerAMP V4.0
#
DISCID=d70b790d
DTITLE=Camus - Indian Prophecy
DYEAR=2005
DGENRE=Blues 
TTITLE0=I Know a Girl
TTITLE1=Indian Prophecy
TTITLE2=Crossroads
TTITLE3=Brother
TTITLE4=Oahu
TTITLE5=Le Blues Du Delta
TTITLE6=National 61
TTITLE7=Hey Joe
TTITLE8=Complaint Session
TTITLE9=Come Rain or Shine
TTITLE10=Meditation
TTITLE11=Freedom Train
TTITLE12=1992
EXTD=2005.Camus /CD Baby
EXTT0=
EXTT1=
EXTT2=
EXTT3=
EXTT4=
EXTT5=
EXTT6=
EXTT7=
EXTT8=
EXTT9=
EXTT10=
EXTT11=
EXTT12=
PLAYORDER=
